# Blender v3.3.1 OBJ File: 'ProiectPGImbunatatit.blend'
# www.blender.org
mtllib tree.mtl
o Plane.020_Plane.022
v -8.526167 -0.223501 -18.027086
v -2.527364 -0.223497 -17.907221
v -8.526173 9.776499 -18.027086
v -2.527370 9.776503 -17.907221
vt 0.000000 0.000000
vt 1.000000 0.000000
vt 1.000000 1.000000
vt 0.000000 1.000000
vn -0.0200 -0.0000 0.9998
usemtl Material.020
s off
f 1/1/1 2/2/1 4/3/1 3/4/1
o Plane.021_Plane.023
v -5.189680 -0.223501 -21.224813
v -5.309546 -0.223496 -15.226011
v -5.189680 9.776499 -21.224821
v -5.309546 9.776504 -15.226019
vt 0.000000 0.000000
vt 1.000000 0.000000
vt 1.000000 1.000000
vt 0.000000 1.000000
vn -0.9998 0.0000 -0.0200
usemtl Material.021
s off
f 5/5/2 6/6/2 8/7/2 7/8/2
o Plane.022_Plane.024
v -11.051935 -0.223501 -21.341949
v -11.171802 -0.223496 -15.343147
v -11.051934 9.776499 -21.341957
v -11.171801 9.776504 -15.343155
vt 0.000000 0.000000
vt 1.000000 0.000000
vt 1.000000 1.000000
vt 0.000000 1.000000
vn -0.9998 0.0000 -0.0200
usemtl Material.022
s off
f 9/9/3 10/10/3 12/11/3 11/12/3
o Plane.023_Plane.025
v -14.388424 -0.223501 -18.144222
v -8.389622 -0.223497 -18.024357
v -14.388430 9.776499 -18.144222
v -8.389627 9.776503 -18.024357
vt 0.000000 0.000000
vt 1.000000 0.000000
vt 1.000000 1.000000
vt 0.000000 1.000000
vn -0.0200 -0.0000 0.9998
usemtl Material.023
s off
f 13/13/4 14/14/4 16/15/4 15/16/4
o Plane.024_Plane.026
v -25.972477 -0.223501 -18.375685
v -19.973673 -0.223497 -18.255819
v -25.972483 9.776499 -18.375685
v -19.973679 9.776503 -18.255819
vt 0.000000 0.000000
vt 1.000000 0.000000
vt 1.000000 1.000000
vt 0.000000 1.000000
vn -0.0200 -0.0000 0.9998
usemtl Material.024
s off
f 17/17/5 18/18/5 20/19/5 19/20/5
o Plane.025_Plane.027
v -22.635990 -0.223501 -21.573414
v -22.755856 -0.223496 -15.574612
v -22.635990 9.776499 -21.573421
v -22.755856 9.776504 -15.574619
vt 0.000000 0.000000
vt 1.000000 0.000000
vt 1.000000 1.000000
vt 0.000000 1.000000
vn -0.9998 0.0000 -0.0200
usemtl Material.025
s off
f 21/21/6 22/22/6 24/23/6 23/24/6
o Plane.026_Plane.028
v -16.773731 -0.223501 -21.456278
v -16.893597 -0.223496 -15.457476
v -16.773731 9.776499 -21.456285
v -16.893597 9.776504 -15.457483
vt 0.000000 0.000000
vt 1.000000 0.000000
vt 1.000000 1.000000
vt 0.000000 1.000000
vn -0.9998 0.0000 -0.0200
usemtl Material.026
s off
f 25/25/7 26/26/7 28/27/7 27/28/7
o Plane.027_Plane.029
v -20.110220 -0.223501 -18.258551
v -14.111417 -0.223497 -18.138685
v -20.110226 9.776499 -18.258551
v -14.111423 9.776503 -18.138685
vt 0.000000 0.000000
vt 1.000000 0.000000
vt 1.000000 1.000000
vt 0.000000 1.000000
vn -0.0200 -0.0000 0.9998
usemtl Material.027
s off
f 29/29/8 30/30/8 32/31/8 31/32/8
o Plane.032_Plane.034
v -12.527290 -0.223500 11.244629
v -6.527790 -0.223498 11.322034
v -12.527294 9.776501 11.244628
v -6.527793 9.776503 11.322033
vt 0.000000 0.000000
vt 1.000000 0.000000
vt 1.000000 1.000000
vt 0.000000 1.000000
vn -0.0129 0.0000 0.9999
usemtl Material.032
s off
f 33/33/9 34/34/9 36/35/9 35/36/9
o Plane.033_Plane.035
v -9.213517 -0.223501 8.023363
v -9.290923 -0.223497 14.022863
v -9.213517 9.776499 8.023357
v -9.290923 9.776503 14.022858
vt 0.000000 0.000000
vt 1.000000 0.000000
vt 1.000000 1.000000
vt 0.000000 1.000000
vn -0.9999 0.0000 -0.0129
usemtl Material.033
s off
f 37/37/10 38/38/10 40/39/10 39/40/10
o Plane.034_Plane.036
v -3.350578 -0.223501 8.099006
v -3.427984 -0.223497 14.098506
v -3.350577 9.776499 8.099000
v -3.427983 9.776503 14.098500
vt 0.000000 0.000000
vt 1.000000 0.000000
vt 1.000000 1.000000
vt 0.000000 1.000000
vn -0.9999 0.0000 -0.0129
usemtl Material.034
s off
f 41/41/11 42/42/11 44/43/11 43/44/11
o Plane.035_Plane.037
v -6.664351 -0.223500 11.320271
v -0.664850 -0.223498 11.397676
v -6.664354 9.776501 11.320270
v -0.664854 9.776503 11.397675
vt 0.000000 0.000000
vt 1.000000 0.000000
vt 1.000000 1.000000
vt 0.000000 1.000000
vn -0.0129 0.0000 0.9999
usemtl Material.035
s off
f 45/45/12 46/46/12 48/47/12 47/48/12
o Plane.044_Plane.046
v -18.249752 -0.223500 11.170799
v -12.250252 -0.223498 11.248204
v -18.249756 9.776501 11.170798
v -12.250256 9.776503 11.248203
vt 0.000000 0.000000
vt 1.000000 0.000000
vt 1.000000 1.000000
vt 0.000000 1.000000
vn -0.0129 0.0000 0.9999
usemtl Material.044
s off
f 49/49/13 50/50/13 52/51/13 51/52/13
o Plane.045_Plane.047
v -14.935979 -0.223501 7.949534
v -15.013385 -0.223497 13.949035
v -14.935979 9.776499 7.949529
v -15.013385 9.776503 13.949029
vt 0.000000 0.000000
vt 1.000000 0.000000
vt 1.000000 1.000000
vt 0.000000 1.000000
vn -0.9999 0.0000 -0.0129
usemtl Material.045
s off
f 53/53/14 54/54/14 56/55/14 55/56/14
o Plane.046_Plane.048
v -20.798918 -0.223501 7.873892
v -20.876324 -0.223497 13.873392
v -20.798916 9.776499 7.873886
v -20.876322 9.776503 13.873386
vt 0.000000 0.000000
vt 1.000000 0.000000
vt 1.000000 1.000000
vt 0.000000 1.000000
vn -0.9999 0.0000 -0.0129
usemtl Material.046
s off
f 57/57/15 58/58/15 60/59/15 59/60/15
o Plane.047_Plane.049
v -24.112690 -0.223500 11.095158
v -18.113190 -0.223498 11.172563
v -24.112694 9.776501 11.095157
v -18.113194 9.776503 11.172562
vt 0.000000 0.000000
vt 1.000000 0.000000
vt 1.000000 1.000000
vt 0.000000 1.000000
vn -0.0129 0.0000 0.9999
usemtl Material.047
s off
f 61/61/16 62/62/16 64/63/16 63/64/16
